<?xml version="1.0" encoding="UTF-8" standalone="no"?>
<!-- Created with Inkscape (http://www.inkscape.org/) -->

<svg
   version="1.1"
   id="svg1"
   width="154.66612"
   height="133.68793"
   viewBox="0 0 154.66612 133.68793"
   xmlns="http://www.w3.org/2000/svg"
   xmlns:svg="http://www.w3.org/2000/svg">
  <defs
     id="defs1" />
  <g
     id="g1"
     transform="translate(-158.5219,-35.480045)">
    <path
       id="path1-3"
       style="fill:#5fa2dd;fill-opacity:1"
       d="M 188.46902,22.454393 C 173.25563,22.380966 161.79045,31.902827 153.48855,41.177049 141.17496,27.463048 121.91886,13.295985 93.916284,30.493455 66.112222,50.703675 77.832533,75.691409 83.980737,87.79033 c 16.196333,29.1611 42.830343,49.75439 69.582033,68.35156 l 0.002,-0.15234 c 26.73588,-18.58862 53.35026,-39.17239 69.53711,-68.316407 6.1482,-12.098921 17.86656,-37.086655 -9.9375,-57.296875 -9.14201,-5.614465 -17.35245,-7.886435 -24.69531,-7.921875 z"
       transform="translate(82.314185,13.026076)" />
    <path
       id="path2-7"
       style="fill:#ffffff"
       d="m 149.34608,56.541506 c -0.95535,-0.09584 -1.94314,0.795771 -2.625,2.962891 l -7.8164,33.302734 -6.86133,-14.861328 c -1.46421,-2.576106 -4.31798,-4.933933 -6.53907,0.162109 L 117.05507,111.86182 99.680066,67.424318 c -2.044059,-6.08023 -5.230425,-4.887286 -6.933594,0.214844 l -7.716796,24.017578 -14.234375,0.3125 a 5.0846348,4.8178582 0 0 0 -4.136719,-2.035156 5.0846348,4.8178582 0 0 0 -5.083985,4.818359 5.0846348,4.8178582 0 0 0 5.083985,4.81836 5.0846348,4.8178582 0 0 0 4.558594,-2.701172 c 3.849135,-0.228843 16.697265,-0.230469 16.697265,-0.230469 l 7.900391,-22.849609 18.150388,46.849607 c 1.34438,2.71113 4.42592,3.73484 6.04883,-0.14062 l 8.75977,-35.099612 7.76757,14.822262 c 0.77725,2.05482 4.51298,2.19988 5.3086,-0.21679 0.83533,-2.537296 7.49804,-33.320316 7.49804,-33.320316 l 5.30665,14.167969 25.33984,-0.169922 -0.0117,-0.25 a 5.0846348,4.8178582 0 0 0 4.31055,2.269531 5.0846348,4.8178582 0 0 0 5.08593,-4.816406 5.0846348,4.8178582 0 0 0 -5.08593,-4.818359 5.0846348,4.8178582 0 0 0 -4.62305,2.8125 l -22.23047,-0.646485 -5.66992,-15.728515 c -0.54645,-1.783779 -1.46848,-2.867056 -2.42383,-2.962891 z"
       transform="translate(114.35509,11.974119)" />
  </g>
</svg>
